<svg width="58" height="69" viewBox="0 0 58 69" fill="none" xmlns="http://www.w3.org/2000/svg">
<path d="M28.91 0C25.8824 0 23.4034 2.48507 23.4034 5.52C23.4034 6.23156 23.5432 6.92157 23.7905 7.54687C16.0467 9.56297 11.0134 16.3067 11.0134 24.84C11.0134 35.6482 8.36755 40.5698 5.85084 43.3407C4.59248 44.726 3.35025 45.5669 2.28011 46.3593C1.74234 46.7529 1.25298 47.1464 0.8174 47.6532C0.38181 48.1598 0 48.8822 0 49.68C0 51.5775 1.16157 53.1893 2.79636 54.2512C4.43115 55.3132 6.57681 55.9978 9.16344 56.5369C12.519 57.2322 16.6599 57.5988 21.2092 57.7875C20.8651 58.7039 20.65 59.6904 20.65 60.72C20.65 65.2751 24.3659 69 28.91 69C33.4541 69 37.17 65.2751 37.17 60.72C37.17 59.685 36.9603 58.6985 36.6107 57.7875C41.1602 57.5988 45.3009 57.2322 48.6565 56.5369C51.2432 55.9978 53.3888 55.3132 55.0236 54.2512C56.6584 53.1893 57.82 51.5775 57.82 49.68C57.82 48.8822 57.4382 48.1598 57.0026 47.6532C56.5671 47.1464 56.0777 46.7529 55.5399 46.3593C54.4697 45.5669 53.2276 44.726 51.9692 43.3407C49.4524 40.5698 46.8067 35.6482 46.8067 24.84C46.8067 16.312 41.7625 9.57375 34.0295 7.54687C34.2769 6.92157 34.4167 6.23156 34.4167 5.52C34.4167 2.48507 31.9376 0 28.91 0ZM28.91 2.76C30.448 2.76 31.6634 3.97828 31.6634 5.52C31.6634 7.06172 30.448 8.28 28.91 8.28C27.372 8.28 26.1567 7.06172 26.1567 5.52C26.1567 3.97828 27.372 2.76 28.91 2.76ZM32.1365 9.91875C39.477 11.2287 44.0534 16.9157 44.0534 24.84C44.0534 36.1118 46.9143 41.9013 49.9042 45.195C51.3992 46.8392 52.9102 47.8687 53.9051 48.6018C54.3998 48.9684 54.7709 49.2757 54.9376 49.4643C55.1044 49.6531 55.0667 49.6368 55.0667 49.68C55.0667 50.5425 54.6687 51.1732 53.5179 51.9225C52.3671 52.6718 50.4957 53.3672 48.0973 53.8631C43.3004 54.8604 36.4709 55.2 28.91 55.2C21.3491 55.2 14.5195 54.8604 9.72273 53.8631C7.32429 53.3672 5.45289 52.6718 4.30209 51.9225C3.15127 51.1732 2.75334 50.5425 2.75334 49.68C2.75334 49.6368 2.71569 49.6531 2.8824 49.4643C3.0491 49.2757 3.42016 48.9684 3.9149 48.6018C4.90975 47.8687 6.42086 46.8392 7.91584 45.195C10.9058 41.9013 13.7667 36.1118 13.7667 24.84C13.7667 16.9212 18.3484 11.2772 25.6834 9.96183C26.5976 10.6357 27.7 11.04 28.91 11.04C30.1307 11.04 31.2223 10.6033 32.1365 9.91875ZM24.1777 57.8737C25.7211 57.9061 27.2914 57.96 28.91 57.96C30.5287 57.96 32.0989 57.9061 33.6423 57.8737C34.1316 58.7039 34.4167 59.685 34.4167 60.72C34.4167 63.7872 31.9699 66.24 28.91 66.24C25.8502 66.24 23.4034 63.7872 23.4034 60.72C23.4034 59.6743 23.6776 58.7039 24.1777 57.8737Z" fill="white"/>
<path d="M45.135 23.1643C48.9366 23.1643 52.0184 20.075 52.0184 16.2643C52.0184 12.4535 48.9366 9.36426 45.135 9.36426C41.3335 9.36426 38.2517 12.4535 38.2517 16.2643C38.2517 20.075 41.3335 23.1643 45.135 23.1643Z" fill="#FF0000" stroke="white"/>
</svg>
