<svg width="59" height="70" viewBox="0 0 59 70" fill="none" xmlns="http://www.w3.org/2000/svg">
<path d="M29.4 0C26.3211 0 23.8 2.52109 23.8 5.6C23.8 6.32187 23.9422 7.02187 24.1937 7.65625C16.3187 9.70156 11.2 16.543 11.2 25.2C11.2 36.1648 8.50937 41.1578 5.95 43.9687C4.67031 45.3742 3.40703 46.2273 2.31875 47.0312C1.77187 47.4305 1.27422 47.8297 0.83125 48.3437C0.388282 48.8578 0 49.5906 0 50.4C0 52.325 1.18125 53.9602 2.84375 55.0375C4.50625 56.1148 6.68828 56.8094 9.31875 57.3562C12.7312 58.0617 16.9422 58.4336 21.5687 58.625C21.2187 59.5547 21 60.5555 21 61.6C21 66.2211 24.7789 70 29.4 70C34.0211 70 37.8 66.2211 37.8 61.6C37.8 60.55 37.5867 59.5492 37.2312 58.625C41.8578 58.4336 46.0687 58.0617 49.4812 57.3562C52.1117 56.8094 54.2937 56.1148 55.9562 55.0375C57.6187 53.9602 58.8 52.325 58.8 50.4C58.8 49.5906 58.4117 48.8578 57.9687 48.3437C57.5258 47.8297 57.0281 47.4305 56.4812 47.0312C55.393 46.2273 54.1297 45.3742 52.85 43.9687C50.2906 41.1578 47.6 36.1648 47.6 25.2C47.6 16.5484 42.4703 9.7125 34.6062 7.65625C34.8578 7.02187 35 6.32187 35 5.6C35 2.52109 32.4789 0 29.4 0ZM29.4 2.8C30.9641 2.8 32.2 4.03594 32.2 5.6C32.2 7.16406 30.9641 8.4 29.4 8.4C27.8359 8.4 26.6 7.16406 26.6 5.6C26.6 4.03594 27.8359 2.8 29.4 2.8ZM32.6812 10.0625C40.1461 11.3914 44.8 17.1609 44.8 25.2C44.8 36.6352 47.7094 42.5086 50.75 45.85C52.2703 47.518 53.807 48.5625 54.8187 49.3062C55.3219 49.6781 55.6992 49.9898 55.8687 50.1812C56.0383 50.3727 56 50.3562 56 50.4C56 51.275 55.5953 51.9148 54.425 52.675C53.2547 53.4352 51.3516 54.1406 48.9125 54.6437C44.0344 55.6555 37.0891 56 29.4 56C21.7109 56 14.7656 55.6555 9.8875 54.6437C7.44844 54.1406 5.54531 53.4352 4.375 52.675C3.20469 51.9148 2.8 51.275 2.8 50.4C2.8 50.3562 2.76172 50.3727 2.93125 50.1812C3.10078 49.9898 3.47812 49.6781 3.98125 49.3062C4.99297 48.5625 6.52969 47.518 8.05 45.85C11.0906 42.5086 14 36.6352 14 25.2C14 17.1664 18.6594 11.4406 26.1187 10.1062C27.0484 10.7898 28.1695 11.2 29.4 11.2C30.6414 11.2 31.7516 10.757 32.6812 10.0625ZM24.5875 58.7125C26.157 58.7453 27.7539 58.8 29.4 58.8C31.0461 58.8 32.643 58.7453 34.2125 58.7125C34.7102 59.5547 35 60.55 35 61.6C35 64.7117 32.5117 67.2 29.4 67.2C26.2883 67.2 23.8 64.7117 23.8 61.6C23.8 60.5391 24.0789 59.5547 24.5875 58.7125Z" fill="white"/>
</svg>
